<svg version="1.2" xmlns="http://www.w3.org/2000/svg" viewBox="0 0 91 91" width="91" height="91"><style>.A{fill:#fae58f}.B{fill:#5e8fb9}.C{fill:#78b9f1}.D{fill:#434b56}</style><path class="A" d="m82.7 58.4q1.6-0.5 2.9-1.7c-5.5 13.7-21.4 23.6-40.2 23.6c-21.4 0-39.1-12.8-41.9-29.5c0.5 0.9 1 1.8 1.6 2.5c2.3 2.5 5.2 2.1 7.7 1.8c1.4-0.3 2.9-0.5 4.2-0.1c2.7 0.7 4.2 3.8 5.6 6.6c0.5 1 1 2 1.5 2.8c3 4.9 7.8 6.5 12.5 4.2q1.2-0.6 2.3-1.2c2.9-1.6 5-2.8 8.8-1.7c1.6 0.5 3.2 1.2 4.7 1.9c2.8 1.2 5.6 2.5 9 2.5q0.4 0 0.7 0c5.2-0.3 7.3-3.1 9.3-5.8c1.1-1.5 2.3-3 4-4.3c1.2-0.8 2.6-1 4.2-1.1c1-0.1 2.1-0.2 3.1-0.5z"/><path class="B" d="m57.2 37.9c0 1-0.6 1.9-1.5 2.7c-1.3-4.6-19.3-4.6-20.6 0c-1-0.8-1.5-1.7-1.5-2.7c0-3.1 5.4-5.7 11.8-5.7c6.4 0 11.8 2.6 11.8 5.7z"/><path fill-rule="evenodd" class="C" d="m87.6 46.3q0 3.3-0.7 6.4q-0.2 0.1-0.3 0.3c-1.3 2-2.7 3.2-4.4 3.8c-0.9 0.2-1.8 0.3-2.8 0.4c-1.7 0.2-3.4 0.3-5 1.5c-1.9 1.4-3.1 3-4.3 4.6c-2.1 2.7-3.7 4.9-8.1 5.1c-3.2 0.2-6-1.1-8.9-2.4c-1.6-0.7-3.2-1.4-5-1.9c-4.4-1.3-7 0.1-10 1.8q-1.1 0.6-2.3 1.2c-3.9 1.9-7.7 0.6-10.3-3.6c-0.5-0.7-0.9-1.7-1.4-2.6c-1.5-3.1-3.3-6.6-6.7-7.6c-1.6-0.4-3.3-0.1-4.9 0.1c-2.4 0.3-4.4 0.6-6.1-1.2c-2.7-2.9-3.2-7.9-2.7-11.2c3.2-16.2 20.6-28.7 41.7-28.7c23.3 0 42.2 15.3 42.2 34zm-28.7-8.4c0-4.1-6-7.4-13.5-7.4c-7.6 0-13.5 3.3-13.5 7.4c0 2.5 2 4.6 5.2 5.9c1.7 0.9 4.2 1.4 6.8 1.5q0.1 0 0.1 0q0.7 0 1.4 0q0.7 0 1.3 0q0.1 0 0.1 0c2.6-0.1 5.2-0.6 6.9-1.5c3.1-1.3 5.2-3.5 5.2-5.9z"/><path fill-rule="evenodd" class="D" d="m45.6 83.5c-25.1 0-45.4-16.7-45.4-37.2c0-20.4 20.3-37.1 45.4-37.1c25 0 45.3 16.7 45.3 37.1c0 20.5-20.3 37.2-45.3 37.2zm0-69.7c-22.5 0-40.9 14.6-40.9 32.5c0 18 18.4 32.6 40.9 32.6c22.5 0 40.8-14.6 40.8-32.6c0-17.9-18.3-32.5-40.8-32.5z"/><path fill-rule="evenodd" class="D" d="m45.6 46.8c-8.5 0-15-3.8-15-8.9c0-5 6.5-8.8 15-8.8c8.5 0 14.9 3.8 14.9 8.8c0 5.1-6.4 8.9-14.9 8.9zm0-13.2c-6.4 0-10.4 2.6-10.4 4.3c0 1.8 4 4.3 10.4 4.3c6.3 0 10.3-2.5 10.3-4.3c0-1.7-4-4.3-10.3-4.3z"/><path class="D" d="m36.3 43.9c-0.8 0-1.6-0.4-2.1-1q-0.5-0.7-0.5-1.7c0-4.1 6.4-5.6 11.9-5.6q0 0 0 0c5.4 0 11.8 1.5 11.8 5.6c0 1.5-1.1 2.7-2.6 2.7c-0.9 0-1.7-0.5-3-1.3c-1.5-0.9-3.9-2.4-6.2-2.4c-2.4 0-4.8 1.5-6.3 2.4c-1.2 0.8-2 1.3-3 1.3z"/><path class="D" d="m61.6 71.5c-3.7 0-6.7-1.3-9.6-2.6c-1.5-0.7-3-1.4-4.5-1.8c-3.2-1-4.9 0-7.7 1.5c-0.8 0.5-1.5 0.9-2.4 1.3c-5.3 2.6-11 0.8-14.4-4.7c-0.5-0.9-1-1.9-1.5-2.9c-1.3-2.7-2.6-5.4-4.7-5.9c-1-0.3-2.3-0.1-3.7 0.1c-2.5 0.4-6 0.9-8.8-2.2c-4.1-4.5-4.3-12-3.1-15.7c0.4-1.2 1.6-1.9 2.8-1.5c1.2 0.4 1.9 1.7 1.5 2.9c-0.9 2.7-0.5 8.3 2.1 11.2c1.1 1.2 2.2 1.2 4.9 0.8c1.6-0.3 3.5-0.6 5.5 0c4 1 6 5 7.6 8.2c0.4 1 0.9 1.9 1.3 2.6c1 1.6 3.9 5.3 8.5 3q1.2-0.6 2.2-1.2c3-1.6 6.1-3.4 11.1-1.9c1.9 0.5 3.6 1.3 5.2 2c2.7 1.3 5.3 2.4 8.2 2.3c3.8-0.2 5-1.9 7-4.5c1.2-1.7 2.6-3.5 4.7-5c1.9-1.4 3.9-1.5 5.7-1.7c0.9-0.1 1.7-0.2 2.5-0.4c1.3-0.4 2.5-1.5 3.5-3.2c0.7-1.1 2.1-1.4 3.2-0.7c1 0.7 1.4 2.1 0.7 3.1c-1.7 2.7-3.6 4.4-6 5.1c-1.2 0.4-2.5 0.5-3.5 0.6c-1.4 0.2-2.6 0.3-3.4 0.9c-1.6 1.1-2.7 2.5-3.8 4c-2.1 2.8-4.5 6-10.3 6.3q-0.4 0-0.8 0z"/><path class="D" d="m13.9 35.5c-0.6 0-1.2-0.3-1.6-0.8c-0.9-0.9-0.8-2.3 0.1-3.2l7.5-7c1-0.9 2.4-0.8 3.3 0.1c0.8 0.9 0.8 2.4-0.2 3.2l-7.5 7.1c-0.5 0.4-1 0.6-1.6 0.6z"/><path class="D" d="m26.6 56.2c-0.8 0-1.5-0.4-1.9-1l-5.1-7.6c-0.7-1.1-0.4-2.5 0.6-3.2c1.1-0.7 2.5-0.4 3.2 0.7l5.1 7.5c0.7 1.1 0.4 2.5-0.7 3.2q-0.6 0.4-1.2 0.4z"/><path class="D" d="m23.1 39.4c-0.9 0-1.8-0.6-2.2-1.5c-0.4-1.2 0.3-2.5 1.4-2.9l5.3-1.8c1.2-0.4 2.5 0.2 2.9 1.4c0.4 1.2-0.2 2.5-1.4 2.9l-5.3 1.8q-0.3 0.1-0.7 0.1z"/><path class="D" d="m52.9 59.4c-0.7 0-1.3-0.3-1.8-0.8l-4.3-5.3c-0.8-1-0.7-2.4 0.3-3.2c1-0.8 2.4-0.7 3.2 0.3l4.4 5.3c0.8 0.9 0.6 2.4-0.4 3.2c-0.4 0.3-0.9 0.5-1.4 0.5z"/><path class="D" d="m68 49.8c-0.8 0-1.5-0.5-2-1.2c-0.6-1.1-0.2-2.5 0.9-3.1l7.8-4.4c1.1-0.6 2.5-0.2 3.1 0.9c0.6 1.1 0.2 2.5-0.9 3.1l-7.8 4.4q-0.5 0.3-1.1 0.3z"/><path class="D" d="m71.9 35.5c-1 0-1.9-0.7-2.2-1.8l-2.5-10.7c-0.3-1.2 0.5-2.4 1.7-2.7c1.2-0.3 2.4 0.4 2.7 1.7l2.5 10.7c0.3 1.2-0.4 2.4-1.7 2.7q-0.2 0.1-0.5 0.1z"/><path class="D" d="m55.3 25.7c-0.8 0-1.5-0.4-1.9-1c-0.7-1-0.5-2.4 0.6-3.2l5.8-4.1c1.1-0.7 2.5-0.5 3.2 0.6c0.7 1 0.5 2.4-0.5 3.1l-5.9 4.2q-0.6 0.4-1.3 0.4z"/><path class="D" d="m41 26.6c-0.5 0-1-0.2-1.4-0.5l-6.7-5c-1-0.8-1.1-2.2-0.4-3.2c0.8-1 2.2-1.2 3.2-0.4l6.7 5c1 0.8 1.2 2.2 0.4 3.2c-0.5 0.6-1.1 0.9-1.8 0.9z"/><path class="D" d="m33.2 59.4c-0.6 0-1.2-0.3-1.7-0.7c-0.8-1-0.8-2.4 0.1-3.3l3.5-3.2c0.9-0.8 2.3-0.8 3.2 0.1c0.8 1 0.8 2.4-0.1 3.3l-3.5 3.2c-0.4 0.4-1 0.6-1.5 0.6z"/></svg>